<svg xmlns="http://www.w3.org/2000/svg" viewBox="0 0 180 180"><rect width="180" height="180" rx="42" fill="#173c38"/><circle cx="90" cy="75" r="42" fill="#f1c09a"/><path d="M45 72c2-39 20-55 45-55s43 16 45 55c-26-16-64-16-90 0z" fill="#d8a94d"/><path d="M35 160c10-35 29-52 55-52s45 17 55 52" fill="#2b7768"/><circle cx="76" cy="76" r="5" fill="#173c38"/><circle cx="104" cy="76" r="5" fill="#173c38"/><path d="M75 96c10 8 20 8 30 0" fill="none" stroke="#173c38" stroke-width="5" stroke-linecap="round"/><path d="M137 24l8 15 16 2-12 11 3 16-15-8-15 8 3-16-12-11 16-2z" fill="#f3cf75"/></svg>
